  0
SECTION
  2
HEADER
  9
$ACADVER
  1
AC1006
  9
$EXTMIN
 10
0.000000
 20
0.000000
 30
0.000000
  9
$EXTMAX
 10
652.000000
 20
690.000000
 30
0.000000
  0
ENDSEC
  0
SECTION
  2
ENTITIES
  0
POLYLINE
  8
0
 66
1
 70
1
  0
VERTEX
  8
0
 10
0.000000
 20
345.000000
 42
0.000000
  0
VERTEX
  8
0
 10
0.000000
 20
0.000000
 42
0.000000
  0
VERTEX
  8
0
 10
326.000000
 20
0.000000
 42
0.000000
  0
VERTEX
  8
0
 10
652.000000
 20
0.000000
 42
0.000000
  0
VERTEX
  8
0
 10
652.000000
 20
345.000000
 42
0.000000
  0
VERTEX
  8
0
 10
652.000000
 20
690.000000
 42
0.000000
  0
VERTEX
  8
0
 10
326.000000
 20
690.000000
 42
0.000000
  0
VERTEX
  8
0
 10
0.000000
 20
690.000000
 42
0.000000
  0
SEQEND
  0
POLYLINE
  8
0
 66
1
 70
1
  0
VERTEX
  8
0
 10
131.814871
 20
661.359441
 42
-0.037951
  0
VERTEX
  8
0
 10
144.114563
 20
657.312253
 42
-0.039815
  0
VERTEX
  8
0
 10
155.455654
 20
651.503607
 42
-0.035704
  0
VERTEX
  8
0
 10
166.722546
 20
643.386591
 42
-0.021810
  0
VERTEX
  8
0
 10
178.838846
 20
632.338927
 42
0.000000
  0
VERTEX
  8
0
 10
190.177691
 20
621.056351
 42
0.000000
  0
VERTEX
  8
0
 10
195.156091
 20
623.579097
 42
-0.023007
  0
VERTEX
  8
0
 10
202.637203
 20
626.947073
 42
-0.007875
  0
VERTEX
  8
0
 10
213.765065
 20
631.151690
 42
-0.008066
  0
VERTEX
  8
0
 10
225.531320
 20
635.173810
 42
-0.014021
  0
VERTEX
  8
0
 10
235.434430
 20
638.077437
 42
-0.025021
  0
VERTEX
  8
0
 10
255.518835
 20
642.298214
 42
-0.017360
  0
VERTEX
  8
0
 10
278.545724
 20
645.130616
 42
-0.015435
  0
VERTEX
  8
0
 10
304.601242
 20
646.612300
 42
-0.010945
  0
VERTEX
  8
0
 10
333.883672
 20
646.730889
 42
-0.008135
  0
VERTEX
  8
0
 10
357.668012
 20
645.919334
 42
-0.014367
  0
VERTEX
  8
0
 10
377.249964
 20
644.366988
 42
-0.016693
  0
VERTEX
  8
0
 10
394.440438
 20
641.923012
 42
-0.018520
  0
VERTEX
  8
0
 10
410.838099
 20
638.399795
 42
-0.016046
  0
VERTEX
  8
0
 10
421.871652
 20
635.217872
 42
-0.009118
  0
VERTEX
  8
0
 10
435.012263
 20
630.700826
 42
-0.008149
  0
VERTEX
  8
0
 10
447.215952
 20
626.028768
 42
-0.039825
  0
VERTEX
  8
0
 10
453.830227
 20
622.739111
 42
0.000000
  0
VERTEX
  8
0
 10
457.160455
 20
620.737715
 42
0.000000
  0
VERTEX
  8
0
 10
465.145060
 20
629.350785
 42
-0.044752
  0
VERTEX
  8
0
 10
483.071140
 20
645.516228
 42
-0.057474
  0
VERTEX
  8
0
 10
502.219205
 20
656.723391
 42
-0.062726
  0
VERTEX
  8
0
 10
521.936636
 20
662.594936
 42
-0.072066
  0
VERTEX
  8
0
 10
541.560983
 20
662.992422
 42
-0.029089
  0
VERTEX
  8
0
 10
549.068511
 20
661.612367
 42
-0.020769
  0
VERTEX
  8
0
 10
557.278689
 20
659.238266
 42
-0.021047
  0
VERTEX
  8
0
 10
564.892441
 20
656.327947
 42
-0.044159
  0
VERTEX
  8
0
 10
570.462364
 20
653.317866
 42
-0.046269
  0
VERTEX
  8
0
 10
579.337547
 20
646.196624
 42
-0.036966
  0
VERTEX
  8
0
 10
587.503965
 20
637.038885
 42
-0.037170
  0
VERTEX
  8
0
 10
594.182562
 20
626.845972
 42
-0.048652
  0
VERTEX
  8
0
 10
598.604360
 20
616.630524
 42
-0.039530
  0
VERTEX
  8
0
 10
600.576436
 20
608.292854
 42
-0.022329
  0
VERTEX
  8
0
 10
601.702863
 20
597.960139
 42
-0.022119
  0
VERTEX
  8
0
 10
601.912532
 20
587.321374
 42
-0.032415
  0
VERTEX
  8
0
 10
601.077606
 20
578.000000
 42
-0.046395
  0
VERTEX
  8
0
 10
598.181368
 20
566.507195
 42
-0.041246
  0
VERTEX
  8
0
 10
593.131016
 20
555.259529
 42
-0.037683
  0
VERTEX
  8
0
 10
585.817414
 20
544.091944
 42
-0.027470
  0
VERTEX
  8
0
 10
576.140831
 20
532.835431
 42
-0.014145
  0
VERTEX
  8
0
 10
569.565606
 20
526.363043
 42
-0.009046
  0
VERTEX
  8
0
 10
561.584416
 20
519.204166
 42
-0.006912
  0
VERTEX
  8
0
 10
553.965595
 20
512.797033
 42
-0.060216
  0
VERTEX
  8
0
 10
550.237049
 20
510.432777
 42
0.388236
  0
VERTEX
  8
0
 10
550.175238
 20
510.280382
 42
0.002356
  0
VERTEX
  8
0
 10
550.748746
 20
508.756910
 42
0.007681
  0
VERTEX
  8
0
 10
551.456817
 20
506.984709
 42
0.004623
  0
VERTEX
  8
0
 10
552.348248
 20
504.903715
 42
-0.019991
  0
VERTEX
  8
0
 10
555.596546
 20
496.626969
 42
-0.002908
  0
VERTEX
  8
0
 10
561.426577
 20
479.505618
 42
-0.003172
  0
VERTEX
  8
0
 10
567.053308
 20
462.298366
 42
-0.015696
  0
VERTEX
  8
0
 10
569.852898
 20
452.500000
 42
-0.012088
  0
VERTEX
  8
0
 10
574.077019
 20
433.850372
 42
-0.010031
  0
VERTEX
  8
0
 10
577.690449
 20
413.822888
 42
-0.010052
  0
VERTEX
  8
0
 10
580.246657
 20
395.463041
 42
-0.029568
  0
VERTEX
  8
0
 10
581.000000
 20
382.734906
 42
0.000000
  0
VERTEX
  8
0
 10
581.000000
 20
375.910095
 42
0.000000
  0
VERTEX
  8
0
 10
572.750000
 20
388.043045
 42
-0.000720
  0
VERTEX
  8
0
 10
569.480973
 20
392.865599
 42
-0.000919
  0
VERTEX
  8
0
 10
566.482813
 20
397.319943
 42
-0.000711
  0
VERTEX
  8
0
 10
563.981082
 20
401.063043
 42
-0.007765
  0
VERTEX
  8
0
 10
563.000000
 20
402.586211
 42
0.015717
  0
VERTEX
  8
0
 10
562.384249
 20
403.509594
 42
0.022138
  0
VERTEX
  8
0
 10
561.774594
 20
404.288950
 42
0.019313
  0
VERTEX
  8
0
 10
561.233040
 20
404.874110
 42
0.198107
  0
VERTEX
  8
0
 10
560.934789
 20
404.998213
 42
0.436272
  0
VERTEX
  8
0
 10
560.743283
 20
404.793138
 42
0.005642
  0
VERTEX
  8
0
 10
560.905454
 20
402.840068
 42
0.011871
  0
VERTEX
  8
0
 10
561.186380
 20
400.467726
 42
0.007004
  0
VERTEX
  8
0
 10
561.628625
 20
397.648828
 42
-0.013259
  0
VERTEX
  8
0
 10
562.180482
 20
393.819007
 42
-0.004067
  0
VERTEX
  8
0
 10
562.812999
 20
388.010035
 42
-0.004067
  0
VERTEX
  8
0
 10
563.415423
 20
381.493966
 42
-0.004444
  0
VERTEX
  8
0
 10
563.892514
 20
375.158839
 42
-0.032175
  0
VERTEX
  8
0
 10
563.945804
 20
347.828247
 42
-0.047562
  0
VERTEX
  8
0
 10
560.189584
 20
324.166069
 42
-0.052959
  0
VERTEX
  8
0
 10
552.503310
 20
303.639978
 42
-0.056773
  0
VERTEX
  8
0
 10
540.813815
 20
285.702042
 42
0.000000
  0
VERTEX
  8
0
 10
538.500000
 20
282.904084
 42
0.000000
  0
VERTEX
  8
0
 10
538.447420
 20
296.202042
 42
0.013629
  0
VERTEX
  8
0
 10
538.155084
 20
305.565746
 42
0.010166
  0
VERTEX
  8
0
 10
537.341670
 20
315.867170
 42
0.006313
  0
VERTEX
  8
0
 10
536.277936
 20
325.345897
 42
0.102389
  0
VERTEX
  8
0
 10
535.248470
 20
328.366693
 42
0.578992
  0
VERTEX
  8
0
 10
534.912230
 20
328.362867
 42
0.011720
  0
VERTEX
  8
0
 10
533.935030
 20
326.514464
 42
0.015251
  0
VERTEX
  8
0
 10
532.775276
 20
324.001506
 42
0.008245
  0
VERTEX
  8
0
 10
531.494400
 20
320.844176
 42
-0.040860
  0
VERTEX
  8
0
 10
519.507198
 20
296.065589
 42
-0.045045
  0
VERTEX
  8
0
 10
503.979009
 20
274.419390
 42
-0.043428
  0
VERTEX
  8
0
 10
484.297262
 20
255.270270
 42
-0.033618
  0
VERTEX
  8
0
 10
459.901249
 20
237.939393
 42
-0.003501
  0
VERTEX
  8
0
 10
456.755304
 20
236.038801
 42
-0.005799
  0
VERTEX
  8
0
 10
454.071344
 20
234.484703
 42
-0.001356
  0
VERTEX
  8
0
 10
451.726578
 20
233.171444
 42
-0.371913
  0
VERTEX
  8
0
 10
451.518606
 20
233.214531
 42
-0.188049
  0
VERTEX
  8
0
 10
451.444884
 20
233.468387
 42
-0.000614
  0
VERTEX
  8
0
 10
451.746195
 20
236.794268
 42
-0.003256
  0
VERTEX
  8
0
 10
452.117810
 20
240.570683
 42
-0.002019
  0
VERTEX
  8
0
 10
452.600908
 20
245.000000
 42
0.015851
  0
VERTEX
  8
0
 10
453.583852
 20
257.111984
 42
0.013010
  0
VERTEX
  8
0
 10
453.885744
 20
270.089276
 42
0.012668
  0
VERTEX
  8
0
 10
453.510135
 20
283.455615
 42
0.012801
  0
VERTEX
  8
0
 10
452.458157
 20
296.739012
 42
0.010874
  0
VERTEX
  8
0
 10
450.767218
 20
310.047583
 42
0.017027
  0
VERTEX
  8
0
 10
448.676614
 20
321.395969
 42
0.016346
  0
VERTEX
  8
0
 10
445.751931
 20
332.901859
 42
0.009054
  0
VERTEX
  8
0
 10
441.472815
 20
346.749063
 42
0.011049
  0
VERTEX
  8
0
 10
437.196435
 20
358.841316
 42
0.015385
  0
VERTEX
  8
0
 10
432.802158
 20
369.447473
 42
0.015605
  0
VERTEX
  8
0
 10
427.815432
 20
379.646580
 42
0.011888
  0
VERTEX
  8
0
 10
421.748168
 20
390.500000
 42
0.000000
  0
VERTEX
  8
0
 10
416.432311
 20
399.500000
 42
0.000000
  0
VERTEX
  8
0
 10
432.466155
 20
399.590839
 42
0.016738
  0
VERTEX
  8
0
 10
445.908425
 20
400.117213
 42
0.030753
  0
VERTEX
  8
0
 10
456.760051
 20
401.581181
 42
0.034879
  0
VERTEX
  8
0
 10
466.375947
 20
404.194020
 42
0.030689
  0
VERTEX
  8
0
 10
475.970133
 20
408.209763
 42
0.045051
  0
VERTEX
  8
0
 10
484.803975
 20
413.599160
 42
0.036518
  0
VERTEX
  8
0
 10
493.218596
 20
420.844155
 42
0.036570
  0
VERTEX
  8
0
 10
500.476451
 20
429.222850
 42
0.045605
  0
VERTEX
  8
0
 10
505.852765
 20
438.000000
 42
0.033142
  0
VERTEX
  8
0
 10
508.856485
 20
445.262309
 42
0.018011
  0
VERTEX
  8
0
 10
511.618059
 20
454.519877
 42
0.016947
  0
VERTEX
  8
0
 10
513.924985
 20
464.836584
 42
0.016473
  0
VERTEX
  8
0
 10
515.553107
 20
475.383628
 42
-0.024879
  0
VERTEX
  8
0
 10
516.179092
 20
479.031140
 42
-0.080262
  0
VERTEX
  8
0
 10
517.088591
 20
481.308935
 42
-0.058921
  0
VERTEX
  8
0
 10
518.812287
 20
483.540091
 42
-0.009228
  0
VERTEX
  8
0
 10
522.783959
 20
487.444457
 42
0.008649
  0
VERTEX
  8
0
 10
526.809998
 20
491.393108
 42
0.061526
  0
VERTEX
  8
0
 10
528.471348
 20
493.556385
 42
0.086841
  0
VERTEX
  8
0
 10
529.295051
 20
495.752971
 42
0.025700
  0
VERTEX
  8
0
 10
529.777034
 20
499.324867
 42
0.014608
  0
VERTEX
  8
0
 10
529.968332
 20
502.895485
 42
0.089352
  0
VERTEX
  8
0
 10
529.686467
 20
504.712234
 42
0.100275
  0
VERTEX
  8
0
 10
528.798424
 20
506.220840
 42
0.020690
  0
VERTEX
  8
0
 10
526.633249
 20
508.439101
 42
0.104976
  0
VERTEX
  8
0
 10
517.480362
 20
514.012440
 42
0.035167
  0
VERTEX
  8
0
 10
502.297646
 20
518.172898
 42
0.027752
  0
VERTEX
  8
0
 10
481.819146
 20
521.093567
 42
0.013591
  0
VERTEX
  8
0
 10
455.500000
 20
522.648054
 42
0.017531
  0
VERTEX
  8
0
 10
429.180156
 20
522.562669
 42
0.025463
  0
VERTEX
  8
0
 10
406.051128
 20
520.493663
 42
0.024371
  0
VERTEX
  8
0
 10
382.511875
 20
515.994290
 42
0.014314
  0
VERTEX
  8
0
 10
354.846920
 20
508.450159
 42
0.000000
  0
VERTEX
  8
0
 10
340.193840
 20
504.000000
 42
0.000000
  0
VERTEX
  8
0
 10
324.063412
 20
504.000000
 42
0.000000
  0
VERTEX
  8
0
 10
307.932983
 20
504.000000
 42
0.000000
  0
VERTEX
  8
0
 10
291.216492
 20
508.939438
 42
0.008797
  0
VERTEX
  8
0
 10
267.854280
 20
515.397931
 42
0.019894
  0
VERTEX
  8
0
 10
249.920449
 20
519.264238
 42
0.021949
  0
VERTEX
  8
0
 10
232.851114
 20
521.472623
 42
0.013278
  0
VERTEX
  8
0
 10
212.500000
 20
522.658737
 42
0.017125
  0
VERTEX
  8
0
 10
186.181244
 20
522.590724
 42
0.020420
  0
VERTEX
  8
0
 10
161.439933
 20
520.665329
 42
0.021873
  0
VERTEX
  8
0
 10
140.546695
 20
517.245623
 42
0.065857
  0
VERTEX
  8
0
 10
126.946965
 20
512.473125
 42
0.038250
  0
VERTEX
  8
0
 10
122.389667
 20
509.707248
 42
0.093662
  0
VERTEX
  8
0
 10
119.692494
 20
506.881198
 42
0.106195
  0
VERTEX
  8
0
 10
118.405637
 20
503.500302
 42
0.058557
  0
VERTEX
  8
0
 10
118.249666
 20
499.060828
 42
0.028627
  0
VERTEX
  8
0
 10
118.722587
 20
495.682898
 42
0.086083
  0
VERTEX
  8
0
 10
119.557251
 20
493.518623
 42
0.059451
  0
VERTEX
  8
0
 10
121.235736
 20
491.349582
 42
0.008764
  0
VERTEX
  8
0
 10
125.202191
 20
487.457578
 42
-0.009130
  0
VERTEX
  8
0
 10
129.184024
 20
483.544759
 42
-0.059900
  0
VERTEX
  8
0
 10
130.888755
 20
481.331028
 42
-0.081635
  0
VERTEX
  8
0
 10
131.777239
 20
479.064939
 42
-0.024527
  0
VERTEX
  8
0
 10
132.375638
 20
475.396750
 42
0.029878
  0
VERTEX
  8
0
 10
135.795877
 20
455.754879
 42
0.048343
  0
VERTEX
  8
0
 10
141.267129
 20
439.716150
 42
0.056050
  0
VERTEX
  8
0
 10
148.951167
 20
426.819605
 42
0.064535
  0
VERTEX
  8
0
 10
159.000000
 20
416.625346
 42
0.043066
  0
VERTEX
  8
0
 10
171.237533
 20
408.649381
 42
0.050921
  0
VERTEX
  8
0
 10
184.009229
 20
403.402784
 42
0.045704
  0
VERTEX
  8
0
 10
198.680352
 20
400.479434
 42
0.026063
  0
VERTEX
  8
0
 10
216.746980
 20
399.516934
 42
-0.000908
  0
VERTEX
  8
0
 10
222.593649
 20
399.499820
 42
-0.001514
  0
VERTEX
  8
0
 10
227.516047
 20
399.461559
 42
-0.000093
  0
VERTEX
  8
0
 10
231.935618
 20
399.413001
 42
-0.404988
  0
VERTEX
  8
0
 10
231.996980
 20
399.352204
 42
-0.140209
  0
VERTEX
  8
0
 10
231.967823
 20
399.241788
 42
-0.000171
  0
VERTEX
  8
0
 10
230.772731
 20
397.234988
 42
-0.001511
  0
VERTEX
  8
0
 10
229.425503
 20
394.989940
 42
-0.000927
  0
VERTEX
  8
0
 10
227.825081
 20
392.352204
 42
0.023979
  0
VERTEX
  8
0
 10
218.700531
 20
375.620703
 42
0.019116
  0
VERTEX
  8
0
 10
210.447410
 20
356.791334
 42
0.019158
  0
VERTEX
  8
0
 10
203.677869
 20
337.442179
 42
0.024508
  0
VERTEX
  8
0
 10
199.021447
 20
319.147811
 42
0.016984
  0
VERTEX
  8
0
 10
197.190991
 20
308.240155
 42
0.008211
  0
VERTEX
  8
0
 10
195.554021
 20
294.176878
 42
0.008215
  0
VERTEX
  8
0
 10
194.377032
 20
280.033763
 42
0.016575
  0
VERTEX
  8
0
 10
194.002960
 20
268.855955
 42
0.013109
  0
VERTEX
  8
0
 10
194.207854
 20
260.949647
 42
0.006600
  0
VERTEX
  8
0
 10
194.859385
 20
250.990137
 42
0.006143
  0
VERTEX
  8
0
 10
195.725707
 20
241.476408
 42
0.024500
  0
VERTEX
  8
0
 10
196.612728
 20
235.689054
 42
0.000000
  0
VERTEX
  8
0
 10
197.185682
 20
232.878109
 42
0.000000
  0
VERTEX
  8
0
 10
191.342841
 20
236.105038
 42
-0.031181
  0
VERTEX
  8
0
 10
175.228436
 20
246.364428
 42
-0.024233
  0
VERTEX
  8
0
 10
159.036085
 20
259.398099
 42
-0.024688
  0
VERTEX
  8
0
 10
144.655040
 20
273.498933
 42
-0.040051
  0
VERTEX
  8
0
 10
134.087564
 20
286.952802
 42
-0.013935
  0
VERTEX
  8
0
 10
128.866744
 20
295.319392
 42
-0.013531
  0
VERTEX
  8
0
 10
124.066230
 20
304.045206
 42
-0.013835
  0
VERTEX
  8
0
 10
119.856494
 20
312.799539
 42
-0.016678
  0
VERTEX
  8
0
 10
116.410441
 20
321.250000
 42
0.006683
  0
VERTEX
  8
0
 10
115.267633
 20
324.220888
 42
0.010678
  0
VERTEX
  8
0
 10
114.203836
 20
326.723438
 42
0.004756
  0
VERTEX
  8
0
 10
113.248374
 20
328.791419
 42
0.289850
  0
VERTEX
  8
0
 10
112.918793
 20
329.000000
 42
0.378930
  0
VERTEX
  8
0
 10
111.875370
 20
328.076649
 42
0.004044
  0
VERTEX
  8
0
 10
110.694436
 20
317.749913
 42
0.011701
  0
VERTEX
  8
0
 10
109.797492
 20
306.885760
 42
0.014744
  0
VERTEX
  8
0
 10
109.500000
 20
296.799269
 42
0.000000
  0
VERTEX
  8
0
 10
109.500000
 20
283.098537
 42
0.000000
  0
VERTEX
  8
0
 10
107.237307
 20
285.799269
 42
-0.045517
  0
VERTEX
  8
0
 10
98.350030
 20
298.612977
 42
-0.040061
  0
VERTEX
  8
0
 10
91.485632
 20
313.371512
 42
-0.037757
  0
VERTEX
  8
0
 10
86.736036
 20
329.901573
 42
-0.031472
  0
VERTEX
  8
0
 10
84.159890
 20
348.000000
 42
-0.020110
  0
VERTEX
  8
0
 10
83.763880
 20
358.347101
 42
-0.009129
  0
VERTEX
  8
0
 10
84.037867
 20
371.897961
 42
-0.009096
  0
VERTEX
  8
0
 10
84.800920
 20
385.349434
 42
-0.021513
  0
VERTEX
  8
0
 10
85.981166
 20
395.315556
 42
0.011931
  0
VERTEX
  8
0
 10
87.026255
 20
402.894159
 42
0.661959
  0
VERTEX
  8
0
 10
86.098516
 20
403.418593
 42
0.081640
  0
VERTEX
  8
0
 10
83.985582
 20
401.163685
 42
0.001217
  0
VERTEX
  8
0
 10
73.921421
 20
386.052711
 42
0.000000
  0
VERTEX
  8
0
 10
67.000000
 20
375.605423
 42
0.000000
  0
VERTEX
  8
0
 10
67.017329
 20
381.052711
 42
-0.033264
  0
VERTEX
  8
0
 10
68.399225
 20
400.851531
 42
-0.015823
  0
VERTEX
  8
0
 10
72.668836
 20
426.052243
 42
-0.014992
  0
VERTEX
  8
0
 10
79.081045
 20
453.505324
 42
-0.015032
  0
VERTEX
  8
0
 10
87.121896
 20
480.500000
 42
-0.001029
  0
VERTEX
  8
0
 10
90.256630
 20
489.908334
 42
-0.001433
  0
VERTEX
  8
0
 10
93.103772
 20
498.315305
 42
-0.000868
  0
VERTEX
  8
0
 10
95.533950
 20
505.383874
 42
-0.018548
  0
VERTEX
  8
0
 10
96.333591
 20
507.445720
 42
0.073260
  0
VERTEX
  8
0
 10
96.847086
 20
509.369793
 42
0.187923
  0
VERTEX
  8
0
 10
96.487100
 20
510.739696
 42
0.069524
  0
VERTEX
  8
0
 10
94.990784
 20
512.291148
 42
0.004582
  0
VERTEX
  8
0
 10
90.051806
 20
516.088821
 42
-0.026431
  0
VERTEX
  8
0
 10
81.544401
 20
523.242673
 42
-0.014845
  0
VERTEX
  8
0
 10
71.958537
 20
532.758319
 42
-0.014732
  0
VERTEX
  8
0
 10
63.222281
 20
542.521871
 42
-0.036220
  0
VERTEX
  8
0
 10
57.569864
 20
550.306087
 42
-0.017362
  0
VERTEX
  8
0
 10
55.493999
 20
553.923896
 42
-0.010262
  0
VERTEX
  8
0
 10
53.258140
 20
558.372973
 42
-0.010262
  0
VERTEX
  8
0
 10
51.206066
 20
562.911526
 42
-0.017312
  0
VERTEX
  8
0
 10
49.697784
 20
566.806087
 42
-0.015313
  0
VERTEX
  8
0
 10
48.051973
 20
572.047565
 42
-0.029807
  0
VERTEX
  8
0
 10
47.121040
 20
576.330529
 42
-0.023931
  0
VERTEX
  8
0
 10
46.593336
 20
581.263080
 42
-0.006728
  0
VERTEX
  8
0
 10
46.242841
 20
589.000000
 42
-0.007265
  0
VERTEX
  8
0
 10
46.125700
 20
595.776404
 42
-0.014446
  0
VERTEX
  8
0
 10
46.265993
 20
601.143153
 42
-0.017579
  0
VERTEX
  8
0
 10
46.678532
 20
605.705419
 42
-0.020956
  0
VERTEX
  8
0
 10
47.397586
 20
609.964818
 42
-0.061921
  0
VERTEX
  8
0
 10
52.583526
 20
624.966531
 42
-0.056343
  0
VERTEX
  8
0
 10
61.413509
 20
638.770390
 42
-0.057042
  0
VERTEX
  8
0
 10
72.975479
 20
650.098582
 42
-0.067165
  0
VERTEX
  8
0
 10
86.213611
 20
657.803471
 42
-0.014867
  0
VERTEX
  8
0
 10
90.806868
 20
659.549367
 42
-0.020415
  0
VERTEX
  8
0
 10
95.037740
 20
660.824261
 42
-0.015397
  0
VERTEX
  8
0
 10
100.173517
 20
661.978457
 42
-0.004712
  0
VERTEX
  8
0
 10
108.000000
 20
663.409495
 42
-0.051781
  0
VERTEX
  8
0
 10
112.126956
 20
663.690371
 42
-0.012590
  0
VERTEX
  8
0
 10
118.952205
 20
663.275617
 42
-0.013564
  0
VERTEX
  8
0
 10
126.105216
 20
662.463882
 42
-0.025480
  0
SEQEND
  0
POLYLINE
  8
0
 66
1
 70
1
  0
VERTEX
  8
0
 10
338.500000
 20
477.029231
 42
-0.086886
  0
VERTEX
  8
0
 10
342.301470
 20
475.421412
 42
-0.081660
  0
VERTEX
  8
0
 10
345.424880
 20
472.589863
 42
-0.056331
  0
VERTEX
  8
0
 10
348.296695
 20
467.997707
 42
-0.019169
  0
VERTEX
  8
0
 10
351.423204
 20
460.764512
 42
0.023611
  0
VERTEX
  8
0
 10
357.145703
 20
447.841740
 42
0.032440
  0
VERTEX
  8
0
 10
363.556629
 20
436.873387
 42
0.031961
  0
VERTEX
  8
0
 10
371.410985
 20
426.704914
 42
0.021960
  0
VERTEX
  8
0
 10
381.509850
 20
416.196198
 42
-0.050779
  0
VERTEX
  8
0
 10
395.060041
 20
400.366163
 42
-0.036955
  0
VERTEX
  8
0
 10
406.835759
 20
380.387873
 42
-0.034962
  0
VERTEX
  8
0
 10
416.174712
 20
357.592920
 42
-0.033184
  0
VERTEX
  8
0
 10
422.439599
 20
333.320542
 42
-0.017343
  0
VERTEX
  8
0
 10
425.656290
 20
312.260614
 42
-0.025404
  0
VERTEX
  8
0
 10
426.894088
 20
293.559032
 42
-0.029159
  0
VERTEX
  8
0
 10
426.192553
 20
277.257135
 42
-0.045752
  0
VERTEX
  8
0
 10
423.507538
 20
263.500000
 42
-0.010522
  0
VERTEX
  8
0
 10
422.329115
 20
259.759914
 42
-0.009667
  0
VERTEX
  8
0
 10
420.962588
 20
255.964633
 42
-0.009713
  0
VERTEX
  8
0
 10
419.612756
 20
252.627456
 42
-0.031160
  0
VERTEX
  8
0
 10
418.535478
 20
250.485985
 42
-0.049222
  0
VERTEX
  8
0
 10
415.714419
 20
246.590307
 42
-0.016964
  0
VERTEX
  8
0
 10
410.922610
 20
241.538983
 42
-0.010726
  0
VERTEX
  8
0
 10
405.895802
 20
236.795749
 42
-0.185828
  0
VERTEX
  8
0
 10
403.828650
 20
236.000000
 42
-0.174019
  0
VERTEX
  8
0
 10
403.017302
 20
236.291198
 42
-0.005398
  0
VERTEX
  8
0
 10
400.267561
 20
238.607136
 42
-0.009979
  0
VERTEX
  8
0
 10
397.068367
 20
241.474316
 42
-0.006676
  0
VERTEX
  8
0
 10
393.518789
 20
244.875356
 42
0.015305
  0
VERTEX
  8
0
 10
384.497468
 20
253.225402
 42
0.022249
  0
VERTEX
  8
0
 10
376.009829
 20
259.972967
 42
0.021473
  0
VERTEX
  8
0
 10
366.729666
 20
266.109531
 42
0.012965
  0
VERTEX
  8
0
 10
355.256625
 20
272.608348
 42
-0.010049
  0
VERTEX
  8
0
 10
343.550993
 20
279.149052
 42
-0.080323
  0
VERTEX
  8
0
 10
338.797629
 20
283.071763
 42
-0.134451
  0
VERTEX
  8
0
 10
336.660110
 20
287.460344
 42
-0.046520
  0
VERTEX
  8
0
 10
336.000000
 20
294.539902
 42
0.000000
  0
VERTEX
  8
0
 10
336.000000
 20
302.926354
 42
0.000000
  0
VERTEX
  8
0
 10
347.750000
 20
311.689474
 42
0.015574
  0
VERTEX
  8
0
 10
361.098900
 20
322.307668
 42
0.040891
  0
VERTEX
  8
0
 10
369.750083
 20
330.949100
 42
0.053633
  0
VERTEX
  8
0
 10
375.456407
 20
339.342841
 42
0.050410
  0
VERTEX
  8
0
 10
379.388476
 20
348.931501
 42
0.108633
  0
VERTEX
  8
0
 10
380.409383
 20
363.084710
 42
0.124002
  0
VERTEX
  8
0
 10
375.243605
 20
375.610693
 42
0.104992
  0
VERTEX
  8
0
 10
363.863267
 20
385.666380
 42
0.061654
  0
VERTEX
  8
0
 10
347.000000
 20
392.624003
 42
0.052049
  0
VERTEX
  8
0
 10
338.066917
 20
394.103759
 42
0.014920
  0
VERTEX
  8
0
 10
324.026237
 20
394.529554
 42
0.014882
  0
VERTEX
  8
0
 10
309.995457
 20
394.118559
 42
0.052806
  0
VERTEX
  8
0
 10
301.127585
 20
392.645937
 42
0.055741
  0
VERTEX
  8
0
 10
284.966472
 20
386.163931
 42
0.099684
  0
VERTEX
  8
0
 10
273.984661
 20
377.072129
 42
0.118925
  0
VERTEX
  8
0
 10
268.560415
 20
365.663782
 42
0.103476
  0
VERTEX
  8
0
 10
268.548878
 20
352.405211
 42
0.050165
  0
VERTEX
  8
0
 10
271.908910
 20
341.754510
 42
0.062959
  0
VERTEX
  8
0
 10
277.152245
 20
332.838124
 42
0.048659
  0
VERTEX
  8
0
 10
285.534494
 20
323.922680
 42
0.017691
  0
VERTEX
  8
0
 10
299.000000
 20
312.953379
 42
0.000000
  0
VERTEX
  8
0
 10
311.500000
 20
303.485990
 42
0.000000
  0
VERTEX
  8
0
 10
311.754848
 20
294.992995
 42
-0.011538
  0
VERTEX
  8
0
 10
311.780728
 20
291.255163
 42
-0.018876
  0
VERTEX
  8
0
 10
311.610102
 20
288.092507
 42
-0.021508
  0
VERTEX
  8
0
 10
311.271230
 20
285.591146
 42
-0.074426
  0
VERTEX
  8
0
 10
310.748901
 20
284.047309
 42
-0.112310
  0
VERTEX
  8
0
 10
309.545944
 20
282.614760
 42
-0.017669
  0
VERTEX
  8
0
 10
306.515445
 20
280.481871
 42
-0.016000
  0
VERTEX
  8
0
 10
302.238901
 20
277.883706
 42
-0.007280
  0
VERTEX
  8
0
 10
296.494053
 20
274.749856
 42
0.012854
  0
VERTEX
  8
0
 10
282.682466
 20
267.014570
 42
0.022486
  0
VERTEX
  8
0
 10
271.727078
 20
259.818092
 42
0.024140
  0
VERTEX
  8
0
 10
262.005597
 20
252.045708
 42
0.017947
  0
VERTEX
  8
0
 10
252.028888
 20
242.589867
 42
-0.008193
  0
VERTEX
  8
0
 10
249.466826
 20
240.064911
 42
-0.011997
  0
VERTEX
  8
0
 10
247.124349
 20
237.935774
 42
-0.007482
  0
VERTEX
  8
0
 10
245.114790
 20
236.247375
 42
-0.172636
  0
VERTEX
  8
0
 10
244.419678
 20
236.000000
 42
-0.177815
  0
VERTEX
  8
0
 10
242.448310
 20
236.723969
 42
-0.014216
  0
VERTEX
  8
0
 10
238.255007
 20
240.494293
 42
-0.020267
  0
VERTEX
  8
0
 10
234.084760
 20
244.799267
 42
-0.036003
  0
VERTEX
  8
0
 10
231.070635
 20
248.707076
 42
-0.069250
  0
VERTEX
  8
0
 10
226.141036
 20
258.997511
 42
-0.037177
  0
VERTEX
  8
0
 10
222.868184
 20
272.718968
 42
-0.033537
  0
VERTEX
  8
0
 10
221.388368
 20
288.623581
 42
-0.027931
  0
VERTEX
  8
0
 10
221.899817
 20
305.597872
 42
-0.016491
  0
VERTEX
  8
0
 10
224.266395
 20
325.399616
 42
-0.023012
  0
VERTEX
  8
0
 10
227.773871
 20
342.887101
 42
-0.024089
  0
VERTEX
  8
0
 10
232.721585
 20
359.339334
 42
-0.021098
  0
VERTEX
  8
0
 10
239.424137
 20
376.000000
 42
-0.015885
  0
VERTEX
  8
0
 10
245.530990
 20
388.436937
 42
-0.025220
  0
VERTEX
  8
0
 10
251.614809
 20
398.617661
 42
-0.027803
  0
VERTEX
  8
0
 10
258.203474
 20
407.381327
 42
-0.026575
  0
VERTEX
  8
0
 10
265.818396
 20
415.500000
 42
0.020741
  0
VERTEX
  8
0
 10
276.628254
 20
426.758926
 42
0.033564
  0
VERTEX
  8
0
 10
284.728201
 20
437.271902
 42
0.034441
  0
VERTEX
  8
0
 10
291.206525
 20
448.572942
 42
0.023357
  0
VERTEX
  8
0
 10
297.054082
 20
462.214741
 42
-0.024329
  0
VERTEX
  8
0
 10
299.747147
 20
468.463862
 42
-0.057732
  0
VERTEX
  8
0
 10
302.479255
 20
472.718042
 42
-0.077341
  0
VERTEX
  8
0
 10
305.534373
 20
475.453228
 42
-0.086101
  0
VERTEX
  8
0
 10
309.169325
 20
477.007438
 42
-0.049477
  0
VERTEX
  8
0
 10
314.177278
 20
477.679476
 42
-0.008445
  0
VERTEX
  8
0
 10
323.802010
 20
477.849208
 42
-0.008509
  0
VERTEX
  8
0
 10
333.428197
 20
477.692529
 42
-0.048413
  0
SEQEND
  0
POLYLINE
  8
0
 66
1
 70
1
  0
VERTEX
  8
0
 10
300.869849
 20
346.895526
 42
-0.112535
  0
VERTEX
  8
0
 10
303.531205
 20
345.228634
 42
-0.047017
  0
VERTEX
  8
0
 10
306.251811
 20
341.953329
 42
-0.046984
  0
VERTEX
  8
0
 10
308.331848
 20
338.193224
 42
-0.103211
  0
VERTEX
  8
0
 10
309.000000
 20
334.990883
 42
-0.212721
  0
VERTEX
  8
0
 10
307.159538
 20
330.860636
 42
-0.188784
  0
VERTEX
  8
0
 10
302.727953
 20
329.196454
 42
-0.142623
  0
VERTEX
  8
0
 10
297.318681
 20
330.853620
 42
-0.128941
  0
VERTEX
  8
0
 10
293.392177
 20
335.208507
 42
-0.030739
  0
VERTEX
  8
0
 10
291.237164
 20
340.089248
 42
-0.122261
  0
VERTEX
  8
0
 10
290.877153
 20
343.318752
 42
-0.184195
  0
VERTEX
  8
0
 10
292.109318
 20
345.592526
 42
-0.089622
  0
VERTEX
  8
0
 10
295.000000
 20
347.290565
 42
-0.023976
  0
VERTEX
  8
0
 10
296.476292
 20
347.754374
 42
-0.081093
  0
VERTEX
  8
0
 10
297.479097
 20
347.849558
 42
-0.058605
  0
VERTEX
  8
0
 10
298.621220
 20
347.636679
 42
-0.008520
  0
SEQEND
  0
POLYLINE
  8
0
 66
1
 70
1
  0
VERTEX
  8
0
 10
354.532119
 20
346.551027
 42
-0.067300
  0
VERTEX
  8
0
 10
356.863300
 20
345.184597
 42
-0.186042
  0
VERTEX
  8
0
 10
357.822207
 20
343.578880
 42
-0.125515
  0
VERTEX
  8
0
 10
357.640939
 20
341.296614
 42
-0.024340
  0
VERTEX
  8
0
 10
356.103669
 20
337.421401
 42
-0.051195
  0
VERTEX
  8
0
 10
353.948182
 20
333.730929
 42
-0.075141
  0
VERTEX
  8
0
 10
351.307202
 20
331.066199
 42
-0.086185
  0
VERTEX
  8
0
 10
348.298822
 20
329.545873
 42
-0.095287
  0
VERTEX
  8
0
 10
345.060409
 20
329.201361
 42
-0.036798
  0
VERTEX
  8
0
 10
343.240337
 20
329.490562
 42
-0.084929
  0
VERTEX
  8
0
 10
341.969074
 20
330.028931
 42
-0.091432
  0
VERTEX
  8
0
 10
341.005923
 20
330.930524
 42
-0.047767
  0
VERTEX
  8
0
 10
340.157294
 20
332.344395
 42
-0.128762
  0
VERTEX
  8
0
 10
339.520590
 20
335.672949
 42
-0.073950
  0
VERTEX
  8
0
 10
340.396685
 20
339.689763
 42
-0.070861
  0
VERTEX
  8
0
 10
342.476165
 20
343.461544
 42
-0.094751
  0
VERTEX
  8
0
 10
345.365039
 20
346.080920
 42
-0.027760
  0
VERTEX
  8
0
 10
347.891097
 20
347.435001
 42
-0.096630
  0
VERTEX
  8
0
 10
349.679434
 20
347.880033
 42
-0.089882
  0
VERTEX
  8
0
 10
351.573704
 20
347.636145
 42
-0.022116
  0
SEQEND
  0
POLYLINE
  8
0
 66
1
 70
1
  0
VERTEX
  8
0
 10
336.500000
 20
255.955172
 42
-0.017897
  0
VERTEX
  8
0
 10
345.751168
 20
254.286861
 42
-0.027514
  0
VERTEX
  8
0
 10
353.593309
 20
252.123046
 42
-0.030983
  0
VERTEX
  8
0
 10
360.396477
 20
249.356878
 42
-0.035359
  0
VERTEX
  8
0
 10
366.498171
 20
245.872851
 42
-0.034062
  0
VERTEX
  8
0
 10
372.400127
 20
241.314938
 42
-0.035632
  0
VERTEX
  8
0
 10
377.533819
 20
236.061406
 42
-0.035071
  0
VERTEX
  8
0
 10
381.149655
 20
231.128275
 42
-0.220925
  0
VERTEX
  8
0
 10
381.536176
 20
228.113981
 42
-0.121867
  0
VERTEX
  8
0
 10
379.651434
 20
225.038983
 42
-0.019133
  0
VERTEX
  8
0
 10
374.364956
 20
220.210707
 42
-0.022372
  0
VERTEX
  8
0
 10
368.275723
 20
215.512756
 42
-0.038701
  0
VERTEX
  8
0
 10
362.778247
 20
212.254421
 42
-0.033504
  0
VERTEX
  8
0
 10
355.577190
 20
209.288615
 42
-0.033243
  0
VERTEX
  8
0
 10
348.025786
 20
207.302069
 42
-0.026866
  0
VERTEX
  8
0
 10
338.974491
 20
206.053667
 42
-0.012098
  0
VERTEX
  8
0
 10
327.000000
 20
205.344607
 42
-0.005567
  0
VERTEX
  8
0
 10
318.348369
 20
205.138522
 42
-0.017693
  0
VERTEX
  8
0
 10
312.564877
 20
205.269826
 42
-0.022381
  0
VERTEX
  8
0
 10
307.573455
 20
205.784943
 42
-0.014151
  0
VERTEX
  8
0
 10
301.809563
 20
206.809351
 42
-0.027550
  0
VERTEX
  8
0
 10
292.796050
 20
209.200177
 42
-0.038441
  0
VERTEX
  8
0
 10
285.087912
 20
212.379534
 42
-0.039880
  0
VERTEX
  8
0
 10
278.174710
 20
216.596860
 42
-0.033233
  0
VERTEX
  8
0
 10
271.557042
 20
222.102500
 42
0.000000
  0
VERTEX
  8
0
 10
264.614083
 20
228.706322
 42
0.000000
  0
VERTEX
  8
0
 10
268.382291
 20
233.839649
 42
-0.055031
  0
VERTEX
  8
0
 10
276.009622
 20
242.139840
 42
-0.057057
  0
VERTEX
  8
0
 10
285.177441
 20
248.461471
 42
-0.051845
  0
VERTEX
  8
0
 10
296.307300
 20
252.985620
 42
-0.034222
  0
VERTEX
  8
0
 10
309.813959
 20
255.922010
 42
-0.020327
  0
VERTEX
  8
0
 10
316.180406
 20
256.592990
 42
-0.015780
  0
VERTEX
  8
0
 10
323.144265
 20
256.821482
 42
-0.015770
  0
VERTEX
  8
0
 10
330.114391
 20
256.610256
 42
-0.020201
  0
SEQEND
  0
POLYLINE
  8
0
 66
1
 70
1
  0
VERTEX
  8
0
 10
135.000000
 20
231.826480
 42
0.010531
  0
VERTEX
  8
0
 10
148.676282
 20
221.239629
 42
0.006536
  0
VERTEX
  8
0
 10
165.146347
 20
209.366349
 42
0.006480
  0
VERTEX
  8
0
 10
182.222848
 20
197.719154
 42
0.009080
  0
VERTEX
  8
0
 10
197.792180
 20
187.795330
 42
0.000000
  0
VERTEX
  8
0
 10
203.844103
 20
184.090660
 42
0.000000
  0
VERTEX
  8
0
 10
201.923320
 20
177.795330
 42
0.020299
  0
VERTEX
  8
0
 10
199.283337
 20
167.690560
 42
0.024854
  0
VERTEX
  8
0
 10
197.677712
 20
158.063357
 42
0.020200
  0
VERTEX
  8
0
 10
196.833610
 20
146.854667
 42
0.008134
  0
VERTEX
  8
0
 10
196.549469
 20
131.500000
 42
0.004359
  0
VERTEX
  8
0
 10
196.613280
 20
121.656078
 42
0.007023
  0
VERTEX
  8
0
 10
196.858484
 20
113.273916
 42
0.007974
  0
VERTEX
  8
0
 10
197.259385
 20
106.514214
 42
0.024990
  0
VERTEX
  8
0
 10
197.827331
 20
102.000000
 42
0.012441
  0
VERTEX
  8
0
 10
199.152170
 20
95.464568
 42
0.003604
  0
VERTEX
  8
0
 10
201.519306
 20
85.449356
 42
0.003202
  0
VERTEX
  8
0
 10
203.994781
 20
75.577992
 42
0.019172
  0
VERTEX
  8
0
 10
205.512608
 20
70.500000
 42
-0.796005
  0
VERTEX
  8
0
 10
204.644723
 20
69.961925
 42
-0.001842
  0
VERTEX
  8
0
 10
187.166822
 20
87.718244
 42
-0.004856
  0
VERTEX
  8
0
 10
170.611567
 20
104.994122
 42
-0.019678
  0
VERTEX
  8
0
 10
161.054850
 20
116.000000
 42
-0.016967
  0
VERTEX
  8
0
 10
150.651467
 20
129.921660
 42
-0.016012
  0
VERTEX
  8
0
 10
141.003512
 20
144.783170
 42
-0.016444
  0
VERTEX
  8
0
 10
132.611174
 20
159.755061
 42
-0.021427
  0
VERTEX
  8
0
 10
125.988866
 20
174.000000
 42
-0.023956
  0
VERTEX
  8
0
 10
122.861022
 20
182.719604
 42
-0.010329
  0
VERTEX
  8
0
 10
119.497038
 20
194.603336
 42
-0.010351
  0
VERTEX
  8
0
 10
116.616526
 20
206.660968
 42
-0.022971
  0
VERTEX
  8
0
 10
115.038373
 20
215.973766
 42
-0.017725
  0
VERTEX
  8
0
 10
114.357050
 20
223.832089
 42
-0.009618
  0
VERTEX
  8
0
 10
114.048658
 20
233.525794
 42
-0.007463
  0
VERTEX
  8
0
 10
114.070276
 20
242.693582
 42
-0.061164
  0
VERTEX
  8
0
 10
114.650567
 20
246.827555
 42
-0.073480
  0
VERTEX
  8
0
 10
115.169087
 20
248.026031
 42
-0.363898
  0
VERTEX
  8
0
 10
115.815662
 20
248.238695
 42
-0.091699
  0
VERTEX
  8
0
 10
116.872179
 20
247.571700
 42
-0.004516
  0
VERTEX
  8
0
 10
119.886912
 20
244.734630
 42
0.011051
  0
VERTEX
  8
0
 10
122.351198
 20
242.475559
 42
0.003251
  0
VERTEX
  8
0
 10
126.229280
 20
239.119413
 42
0.003263
  0
VERTEX
  8
0
 10
130.641705
 20
235.400268
 42
0.003502
  0
SEQEND
  0
POLYLINE
  8
0
 66
1
 70
1
  0
VERTEX
  8
0
 10
533.900320
 20
233.628338
 42
-0.055473
  0
VERTEX
  8
0
 10
530.873365
 20
203.956995
 42
-0.043845
  0
VERTEX
  8
0
 10
521.328696
 20
173.116071
 42
-0.040985
  0
VERTEX
  8
0
 10
505.719018
 20
142.362788
 42
-0.035477
  0
VERTEX
  8
0
 10
484.612046
 20
112.955679
 42
-0.015839
  0
VERTEX
  8
0
 10
476.057933
 20
103.303106
 42
-0.003435
  0
VERTEX
  8
0
 10
460.651846
 20
87.212939
 42
-0.000416
  0
VERTEX
  8
0
 10
443.306139
 20
69.374055
 42
-0.418081
  0
VERTEX
  8
0
 10
442.299250
 20
69.367417
 42
-0.258717
  0
VERTEX
  8
0
 10
442.221624
 20
69.638322
 42
-0.006963
  0
VERTEX
  8
0
 10
442.528076
 20
70.884168
 42
-0.012805
  0
VERTEX
  8
0
 10
442.957605
 20
72.373840
 42
-0.008213
  0
VERTEX
  8
0
 10
443.528442
 20
74.080614
 42
0.027008
  0
VERTEX
  8
0
 10
447.128579
 20
86.360477
 42
0.020307
  0
VERTEX
  8
0
 10
449.795497
 20
100.184916
 42
0.019331
  0
VERTEX
  8
0
 10
451.447554
 20
114.965881
 42
0.018210
  0
VERTEX
  8
0
 10
451.997183
 20
130.128338
 42
0.010235
  0
VERTEX
  8
0
 10
451.738131
 20
142.669676
 42
0.016449
  0
VERTEX
  8
0
 10
450.947288
 20
153.334771
 42
0.018125
  0
VERTEX
  8
0
 10
449.536052
 20
163.125283
 42
0.017124
  0
VERTEX
  8
0
 10
447.398624
 20
172.977067
 42
-0.002701
  0
VERTEX
  8
0
 10
446.479697
 20
176.692059
 42
-0.003820
  0
VERTEX
  8
0
 10
445.704596
 20
180.010693
 42
-0.002218
  0
VERTEX
  8
0
 10
445.085350
 20
182.814478
 42
-0.053284
  0
VERTEX
  8
0
 10
445.000000
 20
183.613101
 42
-0.223763
  0
VERTEX
  8
0
 10
445.299511
 20
184.248849
 42
-0.011540
  0
VERTEX
  8
0
 10
447.129687
 20
185.690401
 42
-0.016506
  0
VERTEX
  8
0
 10
449.471926
 20
187.331207
 42
-0.011063
  0
VERTEX
  8
0
 10
452.250000
 20
189.057274
 42
0.017132
  0
VERTEX
  8
0
 10
472.389167
 20
201.911436
 42
0.008700
  0
VERTEX
  8
0
 10
496.860041
 20
219.371880
 42
0.007429
  0
VERTEX
  8
0
 10
519.564875
 20
236.703906
 42
0.043586
  0
VERTEX
  8
0
 10
530.491393
 20
246.964411
 42
0.000000
  0
VERTEX
  8
0
 10
532.482786
 20
249.190954
 42
0.000000
  0
VERTEX
  8
0
 10
533.141713
 20
246.845477
 42
-0.048625
  0
VERTEX
  8
0
 10
533.405004
 20
245.370997
 42
-0.005550
  0
VERTEX
  8
0
 10
533.636361
 20
241.995433
 42
-0.006662
  0
VERTEX
  8
0
 10
533.813938
 20
237.962943
 42
-0.005379
  0
SEQEND
  0
POLYLINE
  8
0
 66
1
 70
1
  0
VERTEX
  8
0
 10
244.000000
 20
178.251904
 42
-0.013914
  0
VERTEX
  8
0
 10
250.436122
 20
176.160807
 42
-0.011125
  0
VERTEX
  8
0
 10
257.250182
 20
173.563110
 42
-0.010369
  0
VERTEX
  8
0
 10
264.437912
 20
170.462956
 42
-0.008462
  0
VERTEX
  8
0
 10
272.000000
 20
166.857818
 42
-0.009554
  0
VERTEX
  8
0
 10
281.589835
 20
161.854305
 42
-0.018182
  0
VERTEX
  8
0
 10
289.067865
 20
157.408618
 42
-0.014109
  0
VERTEX
  8
0
 10
294.500979
 20
153.684102
 42
-0.460751
  0
VERTEX
  8
0
 10
294.611068
 20
152.277734
 42
-0.275972
  0
VERTEX
  8
0
 10
293.988956
 20
152.120963
 42
-0.000076
  0
VERTEX
  8
0
 10
266.738729
 20
160.307223
 42
-0.001443
  0
VERTEX
  8
0
 10
242.569428
 20
167.648049
 42
-0.005221
  0
VERTEX
  8
0
 10
227.250000
 20
172.524878
 42
-0.212565
  0
VERTEX
  8
0
 10
226.719776
 20
173.006629
 42
-0.048267
  0
VERTEX
  8
0
 10
226.330857
 20
174.188516
 42
-0.037244
  0
VERTEX
  8
0
 10
226.079497
 20
175.886196
 42
-0.018137
  0
VERTEX
  8
0
 10
226.000000
 20
178.077023
 42
-0.049459
  0
VERTEX
  8
0
 10
226.348927
 20
181.595828
 42
-0.354695
  0
VERTEX
  8
0
 10
227.573479
 20
182.609418
 42
-0.072699
  0
VERTEX
  8
0
 10
230.329864
 20
182.233827
 42
-0.001436
  0
SEQEND
  0
POLYLINE
  8
0
 66
1
 70
1
  0
VERTEX
  8
0
 10
421.802260
 20
177.869473
 42
0.000000
  0
VERTEX
  8
0
 10
421.500000
 20
172.738947
 42
0.000000
  0
VERTEX
  8
0
 10
387.556722
 20
161.896085
 42
-0.001094
  0
VERTEX
  8
0
 10
374.518110
 20
157.762430
 42
-0.001808
  0
VERTEX
  8
0
 10
363.487052
 20
154.335544
 42
-0.000148
  0
VERTEX
  8
0
 10
353.597632
 20
151.305684
 42
-0.277403
  0
VERTEX
  8
0
 10
353.282447
 20
151.384220
 42
-0.376428
  0
VERTEX
  8
0
 10
353.266394
 20
151.629498
 42
-0.009707
  0
VERTEX
  8
0
 10
354.010498
 20
152.560843
 42
-0.015883
  0
VERTEX
  8
0
 10
354.994124
 20
153.670465
 42
-0.009578
  0
VERTEX
  8
0
 10
356.225725
 20
154.924941
 42
-0.072325
  0
VERTEX
  8
0
 10
362.787474
 20
159.719713
 42
-0.010191
  0
VERTEX
  8
0
 10
377.792197
 20
167.271234
 42
-0.012499
  0
VERTEX
  8
0
 10
393.797205
 20
174.435671
 42
-0.027029
  0
VERTEX
  8
0
 10
406.500000
 20
178.955500
 42
-0.001891
  0
VERTEX
  8
0
 10
411.575566
 20
180.437101
 42
-0.002752
  0
VERTEX
  8
0
 10
416.063789
 20
181.702141
 42
-0.001373
  0
VERTEX
  8
0
 10
419.881802
 20
182.744360
 42
-0.047166
  0
VERTEX
  8
0
 10
420.802260
 20
182.901866
 42
-0.260134
  0
VERTEX
  8
0
 10
421.383013
 20
182.632864
 42
-0.108392
  0
VERTEX
  8
0
 10
421.740732
 20
181.814524
 42
-0.050858
  0
VERTEX
  8
0
 10
421.882920
 20
180.314817
 42
-0.012937
  0
SEQEND
  0
POLYLINE
  8
0
 66
1
 70
1
  0
VERTEX
  8
0
 10
339.869578
 20
156.580605
 42
-0.059397
  0
VERTEX
  8
0
 10
340.371712
 20
156.180962
 42
-0.023283
  0
VERTEX
  8
0
 10
340.965213
 20
155.522230
 42
-0.022653
  0
VERTEX
  8
0
 10
341.547540
 20
154.742544
 42
-0.026206
  0
VERTEX
  8
0
 10
342.027102
 20
153.949360
 42
-0.076282
  0
VERTEX
  8
0
 10
342.415530
 20
152.848235
 42
-0.178005
  0
VERTEX
  8
0
 10
342.273674
 20
151.998740
 42
-0.107442
  0
VERTEX
  8
0
 10
341.526562
 20
151.166990
 42
-0.019346
  0
VERTEX
  8
0
 10
339.782479
 20
150.008791
 42
-0.057993
  0
VERTEX
  8
0
 10
337.493101
 20
148.954227
 42
-0.047453
  0
VERTEX
  8
0
 10
334.861852
 20
148.363152
 42
-0.026410
  0
VERTEX
  8
0
 10
330.997033
 20
148.079256
 42
-0.005129
  0
VERTEX
  8
0
 10
324.000000
 20
148.007476
 42
-0.005118
  0
VERTEX
  8
0
 10
316.989577
 20
148.079231
 42
-0.026549
  0
VERTEX
  8
0
 10
313.129214
 20
148.363699
 42
-0.047778
  0
VERTEX
  8
0
 10
310.499536
 20
148.957621
 42
-0.057539
  0
VERTEX
  8
0
 10
308.200502
 20
150.019141
 42
-0.035778
  0
VERTEX
  8
0
 10
306.229499
 20
151.423400
 42
-0.196718
  0
VERTEX
  8
0
 10
305.625610
 20
152.550803
 42
-0.176129
  0
VERTEX
  8
0
 10
305.952638
 20
153.856559
 42
-0.027744
  0
VERTEX
  8
0
 10
307.580596
 20
156.000000
 42
-0.162916
  0
VERTEX
  8
0
 10
308.868842
 20
156.777073
 42
-0.033645
  0
VERTEX
  8
0
 10
311.523948
 20
157.185175
 42
-0.019474
  0
VERTEX
  8
0
 10
315.885745
 20
157.387282
 42
-0.003741
  0
VERTEX
  8
0
 10
323.803447
 20
157.386299
 42
-0.004263
  0
VERTEX
  8
0
 10
329.612109
 20
157.292577
 42
-0.006362
  0
VERTEX
  8
0
 10
334.688290
 20
157.102724
 42
-0.003006
  0
VERTEX
  8
0
 10
338.986997
 20
156.861232
 42
-0.123483
  0
SEQEND
  0
POLYLINE
  8
0
 66
1
 70
1
  0
VERTEX
  8
0
 10
323.827190
 20
102.000000
 42
0.000000
  0
VERTEX
  8
0
 10
341.085682
 20
102.000000
 42
0.000000
  0
VERTEX
  8
0
 10
345.875031
 20
106.479875
 42
0.000000
  0
VERTEX
  8
0
 10
350.664379
 20
110.959750
 42
0.000000
  0
VERTEX
  8
0
 10
353.582190
 20
107.875015
 42
0.055393
  0
VERTEX
  8
0
 10
363.483177
 20
99.492655
 42
0.009392
  0
VERTEX
  8
0
 10
384.313079
 20
86.050898
 42
0.003488
  0
VERTEX
  8
0
 10
406.899901
 20
72.286227
 42
0.344127
  0
VERTEX
  8
0
 10
410.381669
 20
72.715002
 42
-0.078893
  0
VERTEX
  8
0
 10
410.614308
 20
72.883890
 42
-0.243785
  0
VERTEX
  8
0
 10
410.802623
 20
72.882428
 42
-0.221632
  0
VERTEX
  8
0
 10
410.922704
 20
72.724003
 42
-0.067794
  0
VERTEX
  8
0
 10
410.946411
 20
72.416667
 42
-0.221177
  0
VERTEX
  8
0
 10
409.596900
 20
69.909222
 42
-0.001817
  0
VERTEX
  8
0
 10
391.185693
 20
56.256245
 42
-0.007040
  0
VERTEX
  8
0
 10
372.888119
 20
43.183452
 42
-0.012680
  0
VERTEX
  8
0
 10
357.475906
 20
33.065547
 42
0.001218
  0
VERTEX
  8
0
 10
352.108023
 20
29.715114
 42
0.000767
  0
VERTEX
  8
0
 10
345.853845
 20
25.776909
 42
0.000770
  0
VERTEX
  8
0
 10
339.714676
 20
21.884724
 42
0.001414
  0
VERTEX
  8
0
 10
334.728673
 20
18.693030
 42
0.000000
  0
VERTEX
  8
0
 10
323.957345
 20
11.754966
 42
0.000000
  0
VERTEX
  8
0
 10
313.228673
 20
18.748631
 42
0.002375
  0
VERTEX
  8
0
 10
308.644706
 20
21.705839
 42
0.001974
  0
VERTEX
  8
0
 10
303.742173
 20
24.808506
 42
0.001992
  0
VERTEX
  8
0
 10
299.229560
 20
27.614513
 42
0.005399
  0
VERTEX
  8
0
 10
296.000000
 20
29.557102
 42
-0.017633
  0
VERTEX
  8
0
 10
281.329358
 20
38.877720
 42
-0.005828
  0
VERTEX
  8
0
 10
260.448010
 20
53.562644
 42
-0.001261
  0
VERTEX
  8
0
 10
238.233626
 20
69.660506
 42
-0.239738
  0
VERTEX
  8
0
 10
237.000000
 20
72.085493
 42
-0.163724
  0
VERTEX
  8
0
 10
237.117375
 20
72.434338
 42
-0.095916
  0
VERTEX
  8
0
 10
237.449002
 20
72.731364
 42
-0.077101
  0
VERTEX
  8
0
 10
237.943906
 20
72.932065
 42
-0.057908
  0
VERTEX
  8
0
 10
238.528517
 20
73.000000
 42
0.132790
  0
VERTEX
  8
0
 10
245.142763
 20
74.788142
 42
0.006351
  0
VERTEX
  8
0
 10
264.969102
 20
86.693445
 42
0.010314
  0
VERTEX
  8
0
 10
283.959277
 20
98.975679
 42
0.048053
  0
VERTEX
  8
0
 10
294.000000
 20
107.275478
 42
0.000000
  0
VERTEX
  8
0
 10
297.500000
 20
110.785251
 42
0.000000
  0
VERTEX
  8
0
 10
302.034349
 20
106.392625
 42
0.000000
  0
VERTEX
  8
0
 10
306.568698
 20
102.000000
 42
0.000000
  0
SEQEND
  0
POLYLINE
  8
0
 66
1
 70
1
  0
VERTEX
  8
0
 10
100.761950
 20
637.126939
 42
0.080183
  0
VERTEX
  8
0
 10
87.074510
 20
629.996369
 42
0.093829
  0
VERTEX
  8
0
 10
77.176288
 20
619.229515
 42
0.088691
  0
VERTEX
  8
0
 10
71.531011
 20
605.069228
 42
0.063759
  0
VERTEX
  8
0
 10
70.251051
 20
588.056436
 42
0.025815
  0
VERTEX
  8
0
 10
71.051594
 20
580.377152
 42
0.040234
  0
VERTEX
  8
0
 10
72.605628
 20
573.912553
 42
0.039799
  0
VERTEX
  8
0
 10
75.189463
 20
567.730587
 42
0.024590
  0
VERTEX
  8
0
 10
79.137285
 20
560.908889
 42
0.030030
  0
VERTEX
  8
0
 10
85.017967
 20
552.907979
 42
0.030484
  0
VERTEX
  8
0
 10
91.787264
 20
545.711537
 42
0.030049
  0
VERTEX
  8
0
 10
99.477585
 20
539.300246
 42
0.027450
  0
VERTEX
  8
0
 10
108.109859
 20
533.644912
 42
0.000000
  0
VERTEX
  8
0
 10
112.719719
 20
530.974212
 42
0.000000
  0
VERTEX
  8
0
 10
119.494903
 20
544.237106
 42
-0.008354
  0
VERTEX
  8
0
 10
122.589658
 20
550.053336
 42
-0.005664
  0
VERTEX
  8
0
 10
126.299314
 20
556.577313
 42
-0.005708
  0
VERTEX
  8
0
 10
130.026702
 20
562.798780
 42
-0.011360
  0
VERTEX
  8
0
 10
133.144767
 20
567.621832
 42
-0.023990
  0
VERTEX
  8
0
 10
139.555067
 20
576.149430
 42
-0.014237
  0
VERTEX
  8
0
 10
147.951909
 20
585.703132
 42
-0.014078
  0
VERTEX
  8
0
 10
156.511849
 20
594.396475
 42
-0.037001
  0
VERTEX
  8
0
 10
163.250000
 20
599.969149
 42
0.011834
  0
VERTEX
  8
0
 10
165.069847
 20
601.326105
 42
0.017151
  0
VERTEX
  8
0
 10
166.604688
 20
602.615400
 42
0.012827
  0
VERTEX
  8
0
 10
167.789714
 20
603.738605
 42
0.199204
  0
VERTEX
  8
0
 10
168.000000
 20
604.245476
 42
0.166527
  0
VERTEX
  8
0
 10
167.357509
 20
606.121070
 42
0.007051
  0
VERTEX
  8
0
 10
162.911092
 20
611.685794
 42
0.013133
  0
VERTEX
  8
0
 10
158.097669
 20
617.234924
 42
0.024430
  0
VERTEX
  8
0
 10
153.869331
 20
621.427575
 42
0.027434
  0
VERTEX
  8
0
 10
148.711541
 20
625.576817
 42
0.018202
  0
VERTEX
  8
0
 10
142.382199
 20
629.779927
 42
0.018236
  0
VERTEX
  8
0
 10
135.789967
 20
633.496243
 42
0.028353
  0
VERTEX
  8
0
 10
129.833561
 20
636.157448
 42
0.051687
  0
VERTEX
  8
0
 10
123.238469
 20
637.913306
 42
0.030906
  0
VERTEX
  8
0
 10
115.153153
 20
638.684774
 42
0.031020
  0
VERTEX
  8
0
 10
107.132368
 20
638.454645
 42
0.057449
  0
SEQEND
  0
POLYLINE
  8
0
 66
1
 70
1
  0
VERTEX
  8
0
 10
524.000000
 20
637.926113
 42
0.038220
  0
VERTEX
  8
0
 10
521.652779
 20
637.291353
 42
0.010224
  0
VERTEX
  8
0
 10
518.031250
 20
635.924214
 42
0.010300
  0
VERTEX
  8
0
 10
513.967207
 20
634.196331
 42
0.010469
  0
VERTEX
  8
0
 10
510.000000
 20
632.311434
 42
0.015066
  0
VERTEX
  8
0
 10
504.757611
 20
629.484064
 42
0.027309
  0
VERTEX
  8
0
 10
500.681133
 20
626.817085
 42
0.025616
  0
VERTEX
  8
0
 10
496.751884
 20
623.605900
 42
0.011587
  0
VERTEX
  8
0
 10
491.928776
 20
619.025755
 42
0.005054
  0
VERTEX
  8
0
 10
488.493956
 20
615.539376
 42
0.005671
  0
VERTEX
  8
0
 10
485.261155
 20
612.114108
 42
0.005235
  0
VERTEX
  8
0
 10
482.574415
 20
609.140064
 42
0.030094
  0
VERTEX
  8
0
 10
481.266681
 20
607.469081
 42
0.000000
  0
VERTEX
  8
0
 10
479.175810
 20
604.438161
 42
0.000000
  0
VERTEX
  8
0
 10
486.337905
 20
598.661367
 42
-0.034064
  0
VERTEX
  8
0
 10
498.013956
 20
587.852695
 42
-0.025726
  0
VERTEX
  8
0
 10
509.334654
 20
574.532057
 42
-0.024391
  0
VERTEX
  8
0
 10
519.857701
 20
559.288362
 42
-0.022568
  0
VERTEX
  8
0
 10
529.142929
 20
542.700254
 42
0.000000
  0
VERTEX
  8
0
 10
535.065290
 20
530.900508
 42
0.000000
  0
VERTEX
  8
0
 10
541.282645
 20
534.200254
 42
0.054914
  0
VERTEX
  8
0
 10
548.686978
 20
539.240306
 42
0.021378
  0
VERTEX
  8
0
 10
557.761163
 20
547.695761
 42
0.021439
  0
VERTEX
  8
0
 10
566.107676
 20
556.927920
 42
0.052688
  0
VERTEX
  8
0
 10
571.165845
 20
564.533176
 42
0.021682
  0
VERTEX
  8
0
 10
574.480003
 20
571.604540
 42
0.036863
  0
VERTEX
  8
0
 10
576.541149
 20
577.798847
 42
0.037765
  0
VERTEX
  8
0
 10
577.639913
 20
584.122463
 42
0.024141
  0
VERTEX
  8
0
 10
578.000000
 20
591.576166
 42
0.039396
  0
VERTEX
  8
0
 10
577.157728
 20
602.249317
 42
0.050907
  0
VERTEX
  8
0
 10
574.640040
 20
611.742936
 42
0.055106
  0
VERTEX
  8
0
 10
570.479403
 20
619.912314
 42
0.061308
  0
VERTEX
  8
0
 10
564.757551
 20
626.655833
 42
0.055302
  0
VERTEX
  8
0
 10
555.799531
 20
633.245349
 42
0.063573
  0
VERTEX
  8
0
 10
546.014142
 20
637.345159
 42
0.062732
  0
VERTEX
  8
0
 10
535.401756
 20
638.889175
 42
0.051768
  0
SEQEND
  0
ENDSEC
  0
EOF
